<svg xmlns="http://www.w3.org/2000/svg" width="600" height="400" viewBox="0 0 600 400">
  <rect width="600" height="400" fill="#f8fafc" rx="8"/>
  <rect x="40" y="40" width="520" height="320" fill="white" rx="6" stroke="#334155" stroke-opacity="0.15" stroke-width="1"/>
  <rect x="40" y="40" width="520" height="6" fill="#334155" fill-opacity="0.6" rx="3"/>
  <text x="80" y="85" font-family="serif" font-size="22" font-weight="600" fill="#0f172a">Timeline: 11.–20. März 2026</text>
  <line x1="100" y1="105" x2="100" y2="345" stroke="#e2e8f0" stroke-width="2"/>
  <circle cx="100" cy="120" r="5" fill="#ef4444"/>
  <text x="120" y="118" font-family="sans-serif" font-size="11" font-weight="600" fill="#0f172a">11. März · 03:30 EST</text>
  <text x="120" y="133" font-family="sans-serif" font-size="10" fill="#64748b">Mass Remote Wipe ausgelöst</text>
  <circle cx="100" cy="165" r="5" fill="#f59e0b"/>
  <text x="120" y="163" font-family="sans-serif" font-size="11" font-weight="600" fill="#0f172a">11. März · Vormittag</text>
  <text x="120" y="178" font-family="sans-serif" font-size="10" fill="#64748b">SEC 8-K Filing · Aktie −8,5%</text>
  <circle cx="100" cy="210" r="5" fill="#64748b"/>
  <text x="120" y="208" font-family="sans-serif" font-size="11" font-weight="600" fill="#0f172a">15. März</text>
  <text x="120" y="223" font-family="sans-serif" font-size="10" fill="#64748b">Bloomberg: Handala-Logo auf Login-Seiten</text>
  <circle cx="100" cy="255" r="5" fill="#1e3a8a"/>
  <text x="120" y="253" font-family="sans-serif" font-size="11" font-weight="600" fill="#0f172a">17. März</text>
  <text x="120" y="268" font-family="sans-serif" font-size="10" fill="#64748b">Stryker: „Produkte sicher, Betrieb gestört"</text>
  <circle cx="100" cy="300" r="5" fill="#059669"/>
  <text x="120" y="298" font-family="sans-serif" font-size="11" font-weight="600" fill="#0f172a">18. März</text>
  <text x="120" y="313" font-family="sans-serif" font-size="10" fill="#64748b">CISA Advisory: Intune-Hardening</text>
  <circle cx="100" cy="340" r="5" fill="#7c3aed"/>
  <text x="120" y="338" font-family="sans-serif" font-size="11" font-weight="600" fill="#0f172a">19.–20. März</text>
  <text x="120" y="353" font-family="sans-serif" font-size="10" fill="#64748b">FBI beschlagnahmt Domains · DOJ: MOIS</text>
</svg>